<?xml version="1.0" encoding="UTF-8"?>
<svg width="98px" height="99px" viewBox="0 0 98 99" version="1.1" xmlns="http://www.w3.org/2000/svg" xmlns:xlink="http://www.w3.org/1999/xlink">
    <!-- Generator: Sketch 52.2 (67145) - http://www.bohemiancoding.com/sketch -->
    <title>Icon-3</title>
    <desc>Created with Sketch.</desc>
    <g id="UI" stroke="none" stroke-width="1" fill="none" fill-rule="evenodd">
        <g id="Img-&amp;-icon" transform="translate(-411.000000, -5113.000000)" fill="#1F3CA8" fill-rule="nonzero">
            <g id="Icons" transform="translate(119.000000, 5113.000000)">
                <g id="Icon-3" transform="translate(292.000000, 0.000000)">
                    <path d="M29.0954606,68.3978894 L29.0954606,95.212835 L53.8467875,80.9226497 L53.8467875,71 L35,71 C32.6619727,71 30.5582,69.9970369 29.0954606,68.3978894 Z M27.0954606,95.3230634 L27.0954606,66.0770851 L2.15321248,51.8331483 L2.15321248,80.9226497 L27.0954606,95.3230634 Z M27.0336447,63.7386303 C27.0113788,63.4954056 27,63.2490316 27,63 L27,36.7320508 L3.50058164,50.2994463 L27.0336447,63.7386303 Z M55.8467875,69 L90,69 C93.3137085,69 96,66.3137085 96,63 L96,56 L86,56 L44,56 L44,62.3612104 C44,65.0295587 42.7902157,67.4153468 40.8892218,69 L53.8467875,69 L53.8467875,68.9924387 L55.8467875,68.9924387 L55.8467875,69 Z M55.8467875,71 L55.8467875,82.0773503 L28,98.1547005 L0.153212483,82.0773503 L0.153212483,49.9226497 L27,34.4226497 L27,17 L13,17 L13,8 C13,3.581722 16.581722,-3.14265376e-13 21,-3.26849658e-13 L79.0649021,-2.3625546e-13 C83.4831801,-2.29218646e-13 87.0649021,3.581722 87.0649021,8 L87.0649021,54 L98,54 L98,63 C98,67.418278 94.418278,71 90,71 L55.8467875,71 Z M85.0649021,54 L85.0649021,8 C85.0649021,4.6862915 82.3786106,2 79.0649021,2 L26.3374593,2 C27.9709055,3.45188262 29,5.56886586 29,7.926207 L29,15 L27,15 L27,7.926207 C27,4.65325325 24.3467468,2 21.073793,2 L21,2 C17.6862915,2 15,4.6862915 15,8 L15,15 L29,15 L29,63 C29,66.3137085 31.6862915,69 35,69 L35.3612179,69 C39.0277127,68.9999999 42,66.0277126 42,62.3612104 L42,54 L85.0649021,54 Z M41,19 L58,19 L58,16 L41,16 L41,19 Z M39,14 L60,14 L60,21 L39,21 L39,14 Z M41,27 L41,30 L72,30 L72,27 L41,27 Z M39,25 L74,25 L74,32 L39,32 L39,25 Z M41,41 L72,41 L72,38 L41,38 L41,41 Z M39,36 L74,36 L74,43 L39,43 L39,36 Z" id="Combined-Shape"></path>
                </g>
            </g>
        </g>
    </g>
</svg>