<?xml version="1.0" encoding="UTF-8"?>
<svg width="98px" height="98px" viewBox="0 0 98 98" version="1.1" xmlns="http://www.w3.org/2000/svg" xmlns:xlink="http://www.w3.org/1999/xlink">
    <!-- Generator: Sketch 52.2 (67145) - http://www.bohemiancoding.com/sketch -->
    <title>Icon-1</title>
    <desc>Created with Sketch.</desc>
    <g id="UI" stroke="none" stroke-width="1" fill="none" fill-rule="evenodd">
        <g id="Img-&amp;-icon" transform="translate(-119.000000, -5113.000000)" fill="#1F3CA8" fill-rule="nonzero">
            <g id="Icons" transform="translate(119.000000, 5113.000000)">
                <g id="Icon-1">
                    <path d="M66,35 L51,35 L46,35 L46,62 L46,71 L46,72.4590168 C46,75.3106912 47.3514685,77.9936363 49.642952,79.6910315 L71,95.511067 L92.357048,79.6910315 C94.6485315,77.9936363 96,75.3106912 96,72.4590168 L96,35 L66,35 Z M51,33 L51,15 L66,15 L66,33 L98,33 L98,72.4590168 C98,75.9443966 96.3482051,79.2235518 93.5475031,81.2981459 L71,98 L48.4524969,81.2981459 C45.7971825,79.3312463 44.1745891,76.2815999 44.0132833,73 L2,73 L-2.84217094e-14,73 L-2.84217094e-14,0 L2,0 L2,71 L44,71 L44,62 L31,62 L31,7 L46,7 L46,33 L51,33 Z M53,33 L64,33 L64,17 L53,17 L53,33 Z M44,33 L44,9 L33,9 L33,60 L44,60 L44,33 Z M67.6783048,67.790967 L62.0788378,62.1915606 L59,65.2703984 L66.3892228,72.6595606 L66.3977016,72.6510212 L67.7466804,74 L88.6078853,53.138674 L85.4693324,50 L67.6783048,67.790967 Z M85.4693621,47.171548 L91.436281,53.1386972 L67.7466845,76.8284312 L66.4027434,75.4844901 L66.3942704,75.4930236 L56.1715671,65.2704041 L62.0788301,59.3631411 L67.6782996,64.96255 L85.4693621,47.171548 Z M13,30 L13,60 L24,60 L24,30 L13,30 Z M11,28 L26,28 L26,62 L11,62 L11,28 Z" id="Combined-Shape"></path>
                </g>
            </g>
        </g>
    </g>
</svg>