<?xml version="1.0" encoding="UTF-8"?>
<svg width="98px" height="99px" viewBox="0 0 98 99" version="1.1" xmlns="http://www.w3.org/2000/svg" xmlns:xlink="http://www.w3.org/1999/xlink">
    <!-- Generator: Sketch 52.2 (67145) - http://www.bohemiancoding.com/sketch -->
    <title>Icon-4</title>
    <desc>Created with Sketch.</desc>
    <g id="UI" stroke="none" stroke-width="1" fill="none" fill-rule="evenodd">
        <g id="Img-&amp;-icon" transform="translate(-558.000000, -5113.000000)" fill="#1F3CA8" fill-rule="nonzero">
            <g id="Icons" transform="translate(119.000000, 5113.000000)">
                <g id="Icon-4" transform="translate(439.000000, 0.000000)">
                    <path d="M8,90 L94.1425769,90 L89.5147186,85.4142136 L90.9289322,84 L96.5827197,89.602389 L96.5857864,89.5992944 L97.2604545,90.2739624 L98,91.0067847 L97.9966384,91.0101464 L98,91.013508 L90.9289322,98.1488588 L89.5147186,96.7346453 L94.206709,92 L8,92 L8,98 L6,98 L6,92 L-5.68434189e-13,92 L-5.68434189e-13,90 L6,90 L6,3.85742309 L1.41421356,8.48528137 L5.05639974e-12,7.07106781 L5.60238898,1.41728027 L5.59929439,1.41421356 L6.27396245,0.73954551 L7.00678475,4.8411275e-13 L7.01014635,0.0033616033 L7.01350796,-4.6573162e-13 L14.1488588,7.07106781 L12.7346453,8.48528137 L8,3.79329098 L8,90 Z M69,38 L69,29 L61,29 L79.5,5.38458167e-15 L98,29 L89,29 L89,80 L71,80 L53,80 L35,80 L15,80 L15,55 L33,55 L33,47 L51,47 L51,38 L69,38 Z M71,38 L71,78 L87,78 L87,27 L89,27 L94.3518344,27 L79.5,3.71874607 L64.6481656,27 L69,27 L71,27 L71,38 Z M69,40 L53,40 L53,47 L53,78 L69,78 L69,40 Z M51,78 L51,49 L35,49 L35,55 L35,78 L51,78 Z M33,78 L33,57 L17,57 L17,78 L33,78 Z" id="Combined-Shape"></path>
                </g>
            </g>
        </g>
    </g>
</svg>