<?xml version="1.0" encoding="UTF-8"?>
<svg width="98px" height="98px" viewBox="0 0 98 98" version="1.1" xmlns="http://www.w3.org/2000/svg" xmlns:xlink="http://www.w3.org/1999/xlink">
    <!-- Generator: Sketch 52.2 (67145) - http://www.bohemiancoding.com/sketch -->
    <title>icon-2</title>
    <desc>Created with Sketch.</desc>
    <g id="UI" stroke="none" stroke-width="1" fill="none" fill-rule="evenodd">
        <g id="Img-&amp;-icon" transform="translate(-265.000000, -5113.000000)" fill="#1F3CA8" fill-rule="nonzero">
            <g id="Icons" transform="translate(119.000000, 5113.000000)">
                <g id="icon-2" transform="translate(146.000000, 0.000000)">
                    <path d="M82.905057,91.0215367 C90.8018913,85.7280298 96,76.7210566 96,66.5 C96,50.2075999 82.7924001,37 66.5,37 C50.2075999,37 37,50.2075999 37,66.5 C37,76.7538824 42.2315506,85.7858707 50.1711105,91.0724234 L51.1388052,80.4277819 C51.1448027,80.3618088 51.1514319,80.2958947 51.1586919,80.2300486 C51.6640374,75.6466731 55.0821109,72.0912185 59.3658257,71.2041915 C57.2957358,69.2863508 56,66.5444931 56,63.5 L56,59.5 C56,53.7010101 60.7010101,49 66.5,49 C72.2989899,49 77,53.7010101 77,59.5 L77,63.5 C77,66.5416077 75.7067191,69.2811534 73.640058,71.1987364 C77.9592044,72.0593006 81.4146827,75.6296127 81.923006,80.2399955 C81.9302659,80.3058416 81.9368951,80.3717557 81.9428927,80.4377288 L82.905057,91.0215367 Z M81.0034399,92.1944708 L79.9511062,80.6188003 C79.9462647,80.5655434 79.9409133,80.5123341 79.9350527,80.4591797 C79.4362879,75.9354904 75.4226846,72.6522111 70.9144712,73.0297107 C69.5724519,73.6524249 68.0768162,74 66.5,74 C64.9069158,74 63.3966959,73.6452161 62.0440413,73.0103494 C57.5861174,72.702238 53.6408625,75.9667883 53.1466452,80.4492328 C53.1407846,80.5023872 53.1354331,80.5555965 53.1305916,80.6088534 L52.0734152,92.2377938 C56.3385998,94.6336561 61.2597366,96 66.5,96 C71.7717677,96 76.7205599,94.617178 81.0034399,92.1944708 Z M62.5949287,71.0518508 C62.5998161,71.0523828 62.6047039,71.0529183 62.6095921,71.0534572 L62.6089689,71.0591092 C63.7748532,71.6604587 65.0977745,72 66.5,72 C71.1944204,72 75,68.1944204 75,63.5 L75,59.5 C75,54.8055796 71.1944204,51 66.5,51 C61.8055796,51 58,54.8055796 58,59.5 L58,63.5 C58,66.7865631 59.8652661,69.6374699 62.5949287,71.0518508 Z M35.0038879,67 L0,67 L0,0 L80,0 L80,38.0313402 C90.642263,43.0869279 98,53.9342182 98,66.5 C98,83.8969696 83.8969696,98 66.5,98 C49.2700037,98 35.2710206,84.1663877 35.0038879,67 Z M35.0350853,65 C35.8180147,48.2995496 49.6058692,35 66.5,35 C70.5583234,35 74.4373958,35.7674649 78,37.1651777 L78,2 L2,2 L2,65 L35.0350853,65 Z M9,10 L9,13 L40,13 L40,10 L9,10 Z M7,8 L42,8 L42,15 L7,15 L7,8 Z M20,21 L20,24 L43,24 L43,21 L20,21 Z M18,19 L45,19 L45,26 L18,26 L18,19 Z M20,32 L20,35 L43,35 L43,32 L20,32 Z M18,30 L45,30 L45,37 L18,37 L18,30 Z M9,43 L9,46 L32,46 L32,43 L9,43 Z M7,41 L34,41 L34,48 L7,48 L7,41 Z M9,54 L9,57 L27,57 L27,54 L9,54 Z M7,52 L29,52 L29,59 L7,59 L7,52 Z M51,21 L51,24 L61,24 L61,21 L51,21 Z M49,19 L63,19 L63,26 L49,26 L49,19 Z" id="Combined-Shape"></path>
                </g>
            </g>
        </g>
    </g>
</svg>