<?xml version="1.0" encoding="UTF-8"?>
<svg width="98px" height="98px" viewBox="0 0 98 98" version="1.1" xmlns="http://www.w3.org/2000/svg" xmlns:xlink="http://www.w3.org/1999/xlink">
    <!-- Generator: Sketch 52.2 (67145) - http://www.bohemiancoding.com/sketch -->
    <title>Icon-5</title>
    <desc>Created with Sketch.</desc>
    <g id="UI" stroke="none" stroke-width="1" fill="none" fill-rule="evenodd">
        <g id="Img-&amp;-icon" transform="translate(-704.000000, -5113.000000)" fill="#1F3CA8" fill-rule="nonzero">
            <g id="Icons" transform="translate(119.000000, 5113.000000)">
                <g id="Icon-5" transform="translate(585.000000, 0.000000)">
                    <path d="M38.9665593,56.9293505 L26.5571908,47.2737206 L26.5571908,31.0282032 C18.4358059,31.5154879 12,38.2561625 12,46.5 C12,55.0604136 18.9395864,62 27.5,62 C32.0440739,62 36.1314405,60.0446033 38.9665593,56.9293505 Z M40.2150826,55.3667074 C41.9703708,52.854268 43,49.7973754 43,46.5 C43,38.2949025 36.6245392,31.5788736 28.5571908,31.0354867 L28.5571908,46.2957955 L40.2150826,55.3667074 Z M77,48 L77,98 L0,98 L0,21 L50,21 L50,0 L98,0 L98,48 L77,48 Z M75,48 L50,48 L50,23 L2,23 L2,96 L75,96 L75,48 Z M52,2 L52,46 L96,46 L96,2 L52,2 Z M61.9425271,22.4826442 L61.9425271,25.5173558 L79.7166497,25.5173558 L71.5580361,34.0145483 L73.5976895,36.1388465 L85.2528519,24 L73.5976895,11.8611535 L71.5580361,13.9854517 L79.7166497,22.4826442 L61.9425271,22.4826442 Z M68.8108879,34.0145483 L75.0269745,27.5404969 L60,27.5404969 L60,20.4595031 L75.0269745,20.4595031 L68.8108879,13.9854517 L73.5976895,9 L88,24 L73.5976895,39 L68.8108879,34.0145483 Z M27.5,64 C17.8350169,64 10,56.1649831 10,46.5 C10,36.8350169 17.8350169,29 27.5,29 C37.1649831,29 45,36.8350169 45,46.5 C45,56.1649831 37.1649831,64 27.5,64 Z M12,73 L12,76 L37,76 L37,73 L12,73 Z M39,71 L39,78 L10,78 L10,71 L39,71 Z M12,84 L12,87 L53,87 L53,84 L12,84 Z M55,82 L55,89 L10,89 L10,82 L55,82 Z M44,73 L44,76 L62,76 L62,73 L44,73 Z M64,71 L64,78 L42,78 L42,71 L64,71 Z" id="Combined-Shape"></path>
                </g>
            </g>
        </g>
    </g>
</svg>