<?xml version="1.0" encoding="UTF-8"?>
<svg width="161px" height="33px" viewBox="0 0 161 33" version="1.1" xmlns="http://www.w3.org/2000/svg" xmlns:xlink="http://www.w3.org/1999/xlink">
    <!-- Generator: sketchtool 52.2 (67145) - http://www.bohemiancoding.com/sketch -->
    <title>457C2759-462A-4952-B1E1-A11CEBB7A058</title>
    <desc>Created with sketchtool.</desc>
    <g id="Desktop" stroke="none" stroke-width="1" fill="none" fill-rule="evenodd">
        <g id="Index" transform="translate(-230.000000, -53.000000)">
            <g id="Header" transform="translate(24.000000, 4.000000)">
                <g id="Logo" transform="translate(206.000000, 49.000000)">
                    <g id="Group" opacity="0.9">
                        <path d="M3.65609819,29.0449612 C5.14838317,30.8029457 7.08835364,31.9494574 9.25216685,32.8666667 C10.3503986,29.0166508 13.3328597,26.0344889 17.1166782,25.0029443 C20.9004967,23.9713998 24.9354399,25.0404771 27.7565006,27.8220155 C29.1741713,25.9875969 30.1441565,24.0003101 30.7410705,21.6308527 C27.7565006,19.2613953 24.0257881,17.8091473 19.9966187,17.8091473 C12.8216645,17.8474318 6.36171906,22.2691284 3.58148394,29.0449612" id="Path" fill="#CBD2DA"></path>
                        <path d="M31.0395275,14.5224806 L29.0249428,14.6753488 C25.6721017,14.6621853 22.4967766,13.1299685 20.3517407,10.4901943 C18.2067047,7.85042019 17.3118203,4.37366081 17.9074197,0.993643411 C15.6489281,0.595228825 13.3331785,0.699502732 11.1175231,1.29937984 L10.9682946,3.28666667 C10.9405909,8.50176859 13.0810891,13.4824386 16.8545666,16.9832811 C20.6280441,20.4841236 25.677766,22.1741778 30.7410705,21.6308527 C31.3451564,19.2859844 31.44697,16.8350084 31.0395275,14.4460465" id="Path" fill="#AEB8C4"></path>
                        <path d="M7.83449612,12.0765891 C7.83449612,17.2741085 4.55146918,21.7072868 0,23.1595349 C0.746142488,25.4525581 2.08919897,27.439845 3.65609819,29.1213953 C8.6821556,26.8950678 12.4504605,22.452634 13.9010602,17.0436661 C15.3516599,11.6346982 14.3278185,5.84363028 11.1175231,1.29937984 C8.87909561,1.8344186 6.78989664,2.90449612 5.07376892,4.35674419 C6.78989664,6.42046512 7.83449612,9.09565891 7.83449612,12.000155" id="Path" fill="#596879"></path>
                    </g>
                    <g id="Group" transform="translate(43.567442, 6.879070)">
                        <polygon id="Path" fill="#072B4C" points="0 19.4906977 5.13045461 19.4906977 5.13045461 0.764341085 0 0.764341085"></polygon>
                        <path d="M15.9949467,19.8728682 C13.4890393,19.8729796 11.081208,18.886294 9.28008702,17.1212403 C7.50546124,15.2868825 6.52764093,12.8103769 6.56396399,10.2421705 L6.56396399,10.1657364 C6.53597484,6.26855884 8.8292305,2.73845176 12.3734494,1.22294574 C14.4195601,0.431987491 16.6510188,0.272413741 18.7865176,0.764341085 C20.9017752,1.26576285 22.7573563,2.54623155 23.9924201,4.35674419 L20.220027,7.41410853 C19.7179757,6.77181407 19.1043184,6.22784493 18.4092783,5.80899225 C17.8056954,5.3503876 17.0512168,5.19751938 16.1458425,5.19751938 C14.9284351,5.17759557 13.7660367,5.71031627 12.9770323,6.64976744 C12.5997929,7.03193798 12.2980015,7.56697674 12.0716579,8.17844961 C11.9207622,8.78992248 11.7698665,9.40139535 11.7698665,10.0893023 C11.7698665,10.8536434 11.9207622,11.4651163 12.0716579,12.0765891 C12.2980015,12.688062 12.5997929,13.2231008 12.9770323,13.6817054 C13.3542716,14.1403101 13.8824066,14.4460465 14.4105416,14.7517829 C14.9583959,14.99399 15.5481757,15.123879 16.1458425,15.1339535 C16.5985296,15.1339535 17.0512168,15.1339535 17.4284561,14.9810853 L18.560174,14.5224806 L19.4655484,13.7581395 L20.2954749,12.8409302 L24.067868,15.5925581 C23.6596438,16.1884663 23.2055411,16.7507358 22.7098065,17.2741085 C21.6190243,18.4078233 20.2319642,19.2032148 18.7110698,19.5671318 C17.9565911,19.72 16.9757689,19.7964341 15.9949467,19.7964341" id="Path" fill="#072B4C"></path>
                        <path d="M34.2533293,15.2103876 C35.54681,15.2068095 36.7790961,14.6519675 37.6484831,13.6817054 C38.0257224,13.2231008 38.4029617,12.688062 38.6293053,12.1530233 C38.843713,11.5399503 38.9459826,10.8924101 38.9310968,10.2421705 L38.9310968,10.1657364 C38.9360448,8.87540541 38.4805322,7.62673 37.6484831,6.64976744 C37.1957959,6.19116279 36.7431088,5.88542636 36.1395259,5.57968992 C35.527912,5.2795939 34.8574527,5.12285002 34.1778815,5.12108527 C32.2475357,5.10704025 30.5207687,6.33464664 29.8773533,8.17844961 C29.6510098,8.78992248 29.5755619,9.40139535 29.5755619,10.0893023 C29.5521766,11.4058662 30.0088472,12.6849302 30.8581755,13.6817054 C31.7275626,14.6519675 32.9598487,15.2068095 34.2533293,15.2103876 M34.2533293,19.7964341 C31.6275444,19.8397572 29.0867131,18.8539528 27.1612303,17.0448062 C25.3443645,15.2329044 24.3361011,12.7483124 24.3696594,10.1657364 C24.3359568,6.19888034 26.7444292,2.63044504 30.4054884,1.22294574 C34.1545435,-0.380120992 38.4856847,0.431313593 41.4208762,3.28666667 C43.2100772,5.11135871 44.1904568,7.59434618 44.1369992,10.1657364 C44.1391621,14.1046792 41.7362793,17.6344041 38.1011703,19.032093 C36.9694524,19.5671318 35.6113908,19.7964341 34.2533293,19.7964341" id="Shape" fill="#072B4C" fill-rule="nonzero"></path>
                        <g opacity="0.8" transform="translate(43.005281, 3.821705)" fill="#647082">
                            <path d="M9.80822206,9.78356589 L8.22381695,5.50325581 L6.56396399,9.78356589 L9.88366992,9.78356589 L9.80822206,9.78356589 Z M6.26217254,0.611472868 L10.1854614,0.611472868 L16.5230818,15.6689922 L12.0716579,15.6689922 L10.93994,12.9937984 L5.28135034,12.9937984 L4.22508027,15.6689922 L0,15.6689922 L6.26217254,0.611472868 Z" id="Shape" fill-rule="nonzero"></path>
                            <path d="M22.6343586,12.000155 C23.8415244,12.000155 24.8977944,11.6179845 25.6522731,11.0065116 C26.3313038,10.3186047 26.7085431,9.40139535 26.7085431,8.17844961 C26.7085431,6.95550388 26.3313038,6.03829457 25.5768252,5.3503876 C24.8223466,4.73891473 23.8415244,4.35674419 22.5589107,4.35674419 L20.9745056,4.35674419 L20.9745056,12.000155 L22.6343586,12.000155 Z M16.9003211,0.687906977 L22.5589107,0.687906977 C23.8415244,0.687906977 25.0486902,0.917209302 26.1049602,1.22294574 C27.0857824,1.60511628 27.9911568,2.14015504 28.6701875,2.75162791 C29.37507,3.39051634 29.9404308,4.1715405 30.3300405,5.04465116 C30.7072798,6.03829457 30.8581755,7.03193798 30.8581755,8.1020155 C30.8903848,9.1470038 30.7106342,10.1875764 30.3300405,11.1593798 C29.9443793,12.0348206 29.3784505,12.8166294 28.6701875,13.4524031 C27.9082537,14.1656746 27.0093059,14.7120938 26.0295124,15.0575194 C24.9732423,15.4396899 23.7660765,15.6689922 22.4834629,15.6689922 L16.9003211,15.6689922 L16.9003211,0.687906977 Z" id="Shape" fill-rule="nonzero"></path>
                            <polygon id="Path" points="31.9144456 0.764341085 36.2149737 0.764341085 39.7610233 6.49689922 43.3070728 0.687906977 47.6076009 0.687906977 47.6076009 15.6689922 43.5334164 15.6689922 43.5334164 7.03193798 39.7610233 12.9173643 39.6855754 12.9173643 35.9131823 7.10837209 35.9131823 15.6689922 31.9144456 15.6689922"></polygon>
                            <polygon id="Path" points="48.7393188 15.6689922 52.8889512 15.6689922 52.8889512 11.4651163 48.7393188 11.4651163"></polygon>
                            <polygon id="Path" points="54.1715649 15.6689922 58.2457494 15.6689922 58.2457494 0.687906977 54.1715649 0.687906977"></polygon>
                            <polygon id="Path" points="59.9056024 0.764341085 63.6779955 0.764341085 69.7892723 8.56062016 69.7892723 0.764341085 73.788009 0.764341085 73.788009 15.7454264 70.2419595 15.7454264 63.9043391 7.49054264 63.9043391 15.7454264 59.9056024 15.7454264"></polygon>
                        </g>
                    </g>
                </g>
            </g>
        </g>
    </g>
</svg>