<?xml version="1.0" encoding="UTF-8"?>
<svg width="221px" height="32px" viewBox="0 0 221 32" version="1.1" xmlns="http://www.w3.org/2000/svg" xmlns:xlink="http://www.w3.org/1999/xlink">
    <!-- Generator: Sketch 52.2 (67145) - http://www.bohemiancoding.com/sketch -->
    <title>mw_logo_onDark</title>
    <desc>Created with Sketch.</desc>
    <g id="Desktop" stroke="none" stroke-width="1" fill="none" fill-rule="evenodd">
        <g id="Index" transform="translate(-756.000000, -5531.000000)" fill="#A1ACB9">
            <g id="Mass-Media" transform="translate(181.000000, 5455.000000)">
                <g id="1" transform="translate(538.000000, 62.000000)">
                    <g id="mw_logo_onDark" transform="translate(37.000000, 14.000000)">
                        <g id="Group" transform="translate(0.000000, 5.925926)">
                            <path d="M53.2740741,7.28888889 L52.9185185,9.12592593 L52.8592593,9.12592593 C52.3851852,8.05925926 51.0222222,6.63703704 48.1185185,6.63703704 C43.3777778,6.63703704 38.5777778,10.3111111 37.5111111,16.0592593 C36.562963,21.0962963 39.0518519,25.5407407 44.6222222,25.5407407 C46.6962963,25.5407407 49.0666667,24.7111111 50.2518519,22.9925926 L50.3111111,22.9925926 L49.9555556,24.8888889 L55.1703704,24.8888889 L58.4296296,7.22962963 L53.2740741,7.22962963 L53.2740741,7.28888889 Z M51.6148148,16.0592593 C51.2592593,17.7777778 49.6592593,20.6222222 46.3407407,20.6222222 C43.1407407,20.6222222 42.4888889,17.7777778 42.7851852,16.1777778 C43.1407407,14.162963 44.9777778,11.6148148 48,11.6148148 C50.962963,11.6148148 51.9703704,13.9851852 51.6148148,16.0592593 Z" id="Shape" fill-rule="nonzero"></path>
                            <path d="M61.4518519,7.28888889 L66.3703704,7.28888889 L66.0148148,9.12592593 L66.0740741,9.12592593 C66.7259259,8.2962963 67.9111111,6.63703704 70.9925926,6.63703704 L70.0444444,11.9703704 C67.5555556,12.0296296 65.7185185,12.5037037 65.3037037,15.2296296 L63.4666667,24.9481481 L58.1333333,24.9481481 L61.4518519,7.28888889 Z" id="Path"></path>
                            <polygon id="Path" points="74.5481481 0.355555556 79.8814815 0.355555556 77.3925926 13.6888889 77.5111111 13.6888889 83.6148148 7.28888889 89.837037 7.28888889 81.7185185 15.0518519 86.4 24.9481481 80.4148148 24.9481481 76.9777778 16.4148148 76.9185185 16.4148148 75.3185185 24.9481481 70.0444444 24.9481481"></polygon>
                            <path d="M98.3111111,6.63703704 C92.9777778,6.63703704 88.1777778,11.2592593 87.2888889,16.1777778 C86.3407407,21.3925926 89.837037,25.5407407 94.9333333,25.5407407 C96.7703704,25.5407407 98.6074074,25.0074074 100.266667,23.9407407 C101.925926,22.9333333 103.466667,21.3925926 104.711111,19.437037 L99.3185185,19.437037 C98.4296296,20.3851852 97.4222222,21.0962963 95.762963,21.0962963 C93.6888889,21.0962963 92.2074074,19.8518519 92.2666667,17.7777778 L105.481481,17.7777778 C105.659259,17.362963 105.718519,17.0666667 105.837037,16.4148148 C106.844444,10.962963 103.703704,6.63703704 98.3111111,6.63703704 Z M92.9777778,14.162963 C93.3925926,13.0962963 94.8148148,11.1407407 97.6,11.1407407 C100.325926,11.1407407 101.037037,13.0962963 101.037037,14.162963 L92.9777778,14.162963 Z" id="Shape" fill-rule="nonzero"></path>
                            <polygon id="Path" points="30.4592593 0.355555556 21.0962963 14.3407407 21.037037 14.3407407 21.037037 0.355555556 16.5333333 0.355555556 0 24.9481481 6.4 24.9481481 15.7037037 10.962963 15.762963 10.962963 15.762963 24.9481481 20.3259259 24.9481481 29.5703704 10.962963 29.6888889 10.962963 29.6888889 24.9481481 34.962963 24.9481481 34.962963 0.355555556"></polygon>
                            <path d="M119.288889,7.28888889 L115.97037,7.28888889 L116.918519,2.07407407 L112.296296,2.07407407 L111.940741,4.08888889 C111.525926,6.4 110.103704,7.11111111 108.148148,7.28888889 L108.088889,7.28888889 L107.259259,11.2592593 L109.866667,11.2592593 L107.318519,24.8888889 L112.592593,24.8888889 L115.140741,11.2592593 L118.518519,11.2592593 L119.288889,7.28888889 Z" id="Path"></path>
                        </g>
                        <path d="M201.066667,24.1777778 C199.348148,28.2074074 195.2,31.4666667 190.459259,31.4666667 C185.125926,31.4666667 181.748148,27.2592593 182.755556,21.9851852 C183.703704,16.7703704 188.503704,12.562963 193.837037,12.562963 C198.518519,12.562963 201.718519,15.7037037 201.777778,20.0296296 L196.444444,20.0296296 C196.088889,18.7851852 195.318519,17.5407407 193.066667,17.5407407 C190.577778,17.4222222 188.503704,19.4962963 188.02963,21.9851852 C187.555556,24.5333333 188.859259,26.4888889 191.407407,26.4888889 C193.6,26.4888889 194.903704,25.2444444 195.674074,24.1185185 L201.066667,24.1185185 L201.066667,24.1777778 Z M157.214815,0 L146.962963,6.28148148 L149.866667,6.28148148 L140.562963,20.2666667 L140.444444,20.2666667 L140.444444,6.28148148 L135.881481,6.28148148 L126.577778,20.2666667 L126.518519,20.2666667 L126.518519,6.28148148 L121.185185,6.28148148 L121.185185,30.8740741 L125.807407,30.8740741 L135.111111,16.8888889 L135.17037,16.8888889 L135.17037,30.8740741 L139.733333,30.8740741 L156.207407,6.28148148 L158.814815,6.28148148 L157.214815,0 Z M167.288889,30.8740741 L162.074074,30.8740741 L162.42963,28.9777778 L162.37037,28.9777778 C161.125926,30.6962963 158.814815,31.5259259 156.740741,31.5259259 C151.111111,31.5259259 148.681481,27.0814815 149.62963,22.0444444 C150.696296,16.2962963 155.555556,12.6222222 160.237037,12.6222222 C163.140741,12.6222222 164.503704,14.0444444 164.977778,15.1111111 L165.037037,15.1111111 L165.392593,13.2740741 L170.607407,13.2740741 L167.288889,30.8740741 Z M158.4,26.5481481 C161.659259,26.5481481 163.318519,23.7037037 163.674074,21.9851852 C164.02963,19.8518519 163.022222,17.5407407 160.059259,17.5407407 C157.037037,17.5407407 155.2,20.0888889 154.844444,22.1037037 C154.488889,23.762963 155.2,26.5481481 158.4,26.5481481 Z M183.822222,13.2148148 L180.503704,13.2148148 L181.451852,8 L176.82963,8 L176.474074,10.0148148 C176.059259,12.3259259 174.637037,13.037037 172.681481,13.2148148 L172.622222,13.2148148 L171.851852,17.1851852 L174.459259,17.1851852 L171.911111,30.8148148 L177.185185,30.8148148 L179.733333,17.1851852 L183.111111,17.1851852 L183.822222,13.2148148 Z M206.044444,6.28148148 L211.318519,6.28148148 L209.718519,15.0518519 L209.777778,15.0518519 C210.903704,13.3925926 212.444444,12.562963 214.755556,12.562963 C216.414815,12.562963 218.311111,13.2148148 219.2,14.5185185 C220.325926,16.237037 220.207407,17.7777778 219.614815,20.9777778 L217.777778,30.8148148 L212.503704,30.8148148 L214.281481,21.2148148 C214.459259,20.3851852 214.933333,17.4814815 212.148148,17.4814815 C209.185185,17.4814815 208.711111,20.1481481 208.533333,21.037037 L206.696296,30.8148148 L201.481481,30.8148148 L206.044444,6.28148148 Z" id="Shape" fill-rule="nonzero"></path>
                    </g>
                </g>
            </g>
        </g>
    </g>
</svg>